<?xml version="1.0" encoding="UTF-8" standalone="no"?>
<svg xmlns:dc="http://purl.org/dc/elements/1.1/" xmlns:cc="http://creativecommons.org/ns#" xmlns:rdf="http://www.w3.org/1999/02/22-rdf-syntax-ns#" xmlns:svg="http://www.w3.org/2000/svg" xmlns="http://www.w3.org/2000/svg" version="1.1" width="300" height="300" id="svg5">
  <metadata id="metadata11">
    <rdf:RDF>
      <cc:Work rdf:about="">
        <dc:format>image/svg+xml</dc:format>
        <dc:type rdf:resource="http://purl.org/dc/dcmitype/StillImage" />
        <dc:title></dc:title>
      </cc:Work>
    </rdf:RDF>
  </metadata>
  <defs id="defs9" />
  <rect style="fill:#ffffff;stroke-width:10.0979;stop-color:#000000" id="rect978" width="300" height="300" x="0" y="0" />
  <path id="path904" style="font-style:normal;font-variant:normal;font-weight:bold;font-stretch:normal;font-size:40.2815px;line-height:1.25;font-family:Bicubik;-inkscape-font-specification:'Bicubik Bold';letter-spacing:0px;word-spacing:0px;stroke-width:1.13292" d="m 97.001953,38.358399 c -4.061291,0 -6.988684,0.233814 -8.783203,0.706054 -2.644575,0.755589 -4.815549,1.867104 -6.515625,3.331055 -1.700076,1.41673 -3.140683,3.327877 -4.321289,5.736328 -1.133384,2.408439 -1.91288,5.59859 -2.33789,9.56543 -0.236197,2.502889 -0.377655,7.696557 -0.424805,15.583008 -0.04722,7.886469 -0.448506,13.458327 -1.204102,16.716797 -0.755595,3.25849 -2.291479,5.833696 -4.605468,7.722655 -2.266769,1.8417 -5.217257,2.808824 -8.853517,2.903324 v 11.5459 c 3.63626,0.0944 6.586748,1.08758 8.853517,2.97656 2.313989,1.88896 3.849872,4.46124 4.605468,7.71972 0.755666,3.25848 1.156951,9.13928 1.204102,17.63965 0.04722,8.50038 0.353229,14.61498 0.919921,18.3457 0.613914,3.73073 1.913063,6.79958 3.896484,9.20801 1.983424,2.45567 4.486425,4.22829 7.50879,5.31445 2.077865,0.7556 5.429634,1.13087 10.057617,1.13087 h 3.969727 v -11.12109 h -2.197266 c -4.486297,0 -7.50897,-0.6351 -9.067382,-1.91016 -1.511174,-1.27506 -2.455203,-3.51825 -2.833008,-6.72949 -0.188886,-1.74731 -0.284181,-7.22681 -0.284181,-16.43555 0,-10.15323 -1.18078,-17.44862 -3.541992,-21.8877 -2.314006,-4.48632 -6.067045,-7.81498 -11.261718,-9.9873 4.391872,-2.12509 7.602168,-4.55883 9.632813,-7.297854 2.077864,-2.739 3.541563,-6.633514 4.3916,-11.686524 0.519471,-3.258469 0.779297,-11.076459 0.779297,-23.449218 10e-7,-6.13917 0.802588,-10.079848 2.408203,-11.827149 1.605633,-1.79452 4.865043,-2.692383 9.776368,-2.692383 h 2.197266 V 38.358399 Z m 103.737297,0 v 11.121093 h 2.19434 c 4.48632,0 7.4859,0.638035 8.99707,1.913086 1.5584,1.22783 2.50242,3.421898 2.83301,6.585938 0.2361,1.794519 0.35449,7.297119 0.35449,16.505859 0,10.15322 1.1115,17.379328 3.33105,21.676758 2.21955,4.250167 6.04481,7.674147 11.47559,10.271487 -4.15575,1.74731 -7.36898,4.2012 -9.63573,7.36523 -2.26677,3.11681 -3.77666,7.29717 -4.53224,12.53906 -0.42502,3.16403 -0.63867,10.64998 -0.63867,22.45606 0,6.18638 -0.80259,10.15309 -2.4082,11.90039 -1.60565,1.79452 -4.86504,2.68946 -9.77637,2.68946 h -2.19434 v 11.12109 h 3.9668 c 4.06129,0 6.98866,-0.25983 8.7832,-0.7793 2.64456,-0.75559 4.81848,-1.86418 6.51857,-3.32812 1.70007,-1.41674 3.11466,-3.3279 4.24804,-5.73633 1.18061,-2.36123 1.9832,-5.55138 2.40821,-9.56544 0.23613,-2.50288 0.37759,-7.69654 0.4248,-15.583 0.0473,-7.88646 0.4485,-13.43524 1.20409,-16.64649 0.75561,-3.25848 2.26841,-5.83076 4.53516,-7.71972 2.31399,-1.88892 5.28758,-2.88206 8.92383,-2.97656 v -11.5459 c -3.63625,-0.0944 -6.60984,-1.087586 -8.92383,-2.976566 -2.26675,-1.88898 -3.77955,-4.438164 -4.53516,-7.649413 -0.75571,-3.25847 -1.15699,-9.13634 -1.20409,-17.63672 -0.0472,-8.50038 -0.37632,-14.617912 -0.99024,-18.348633 -0.56669,-3.730719 -1.84274,-6.82266 -3.82617,-9.278319 -1.98342,-2.455671 -4.48646,-4.202271 -7.50879,-5.241211 -2.07789,-0.75558 -5.42964,-1.133789 -10.05762,-1.133789 z m -71.0039,24.606444 v 8.827149 h 5.36426 c 3.98548,0 6.85386,2.346859 8.60449,7.04004 l 4.13379,11.0625 -27.43359,60.005858 h 10.8955 l 21.56544,-46.26269 17.54296,46.26269 h 10.89551 L 152.41992,72.741211 c -2.34659,-6.332069 -7.73051,-9.553298 -16.14844,-9.66504 z M 69.585937,188.51074 v 42.29589 h 30.210938 c 6.767295,-0.18126 12.084965,-5.55936 12.084965,-12.08496 0,-3.62533 -1.38842,-6.64462 -4.10743,-9.06151 2.71901,-2.41689 4.10743,-5.43912 4.10743,-9.06446 0,-6.70686 -5.74063,-12.08496 -12.084965,-12.08496 z m 47.733403,0 v 42.29589 h 6.04394 v -42.29589 z m 12.08496,0 v 30.21093 c 0,6.82772 5.61978,12.08496 12.08496,12.08496 h 6.04101 c 3.62533,0 6.64756,-1.38841 9.06445,-4.10742 2.41689,2.71901 5.43912,4.10742 9.06445,4.10742 h 6.04103 c 6.76729,0 12.08496,-5.6802 12.08496,-12.08496 v -30.21093 h -6.04395 v 30.21093 c 0,3.32324 -2.71778,6.04395 -6.04101,6.04395 h -6.04103 c -3.32322,0 -6.04393,-2.72071 -6.04393,-6.04395 v -30.21093 h -6.04103 v 30.21093 c 0,3.32324 -2.72071,6.04395 -6.04394,6.04395 h -6.04101 c -3.32323,0 -6.04102,-2.72071 -6.04102,-6.04395 v -30.21093 z m 72.50683,0 c -6.7673,0 -12.08496,5.6802 -12.08496,12.08496 v 30.21093 h 6.04395 v -12.08496 h 30.21093 v 12.08496 h 6.04102 V 200.5957 c -0.18126,-6.70686 -5.61979,-12.08496 -12.08496,-12.08496 z m -126.281247,6.04394 h 24.166992 c 3.323225,0 6.043945,2.7178 6.043945,6.04102 0,3.32322 -2.72072,6.04101 -6.043945,6.04101 H 75.629883 Z m 126.281247,0 h 18.12598 c 3.32323,0 6.04394,2.7178 6.04394,6.04102 v 12.08496 H 195.87012 V 200.5957 c 0,-3.32322 2.71777,-6.04102 6.04101,-6.04102 z M 75.629883,212.68067 h 24.166992 c 3.323225,0 6.043945,2.71779 6.043945,6.04101 0,3.32323 -2.72072,6.04395 -6.043945,6.04395 H 75.629883 Z m 0.814453,26.66895 c -3.840512,0 -6.858399,3.22069 -6.858399,6.85546 0,3.8748 3.189338,6.85839 6.858399,6.85839 h 10.286132 c 1.885968,0 3.430665,1.5447 3.430665,3.43067 0,1.88596 -1.544697,3.42774 -3.430665,3.42774 H 76.444336 c -1.885966,0 -3.427735,-1.54178 -3.427735,-3.42774 h -3.430664 c 0.10287,3.8748 3.120756,6.8584 6.858399,6.8584 h 10.286132 c 3.840513,0 6.858399,-3.22363 6.858399,-6.8584 0,-3.80624 -3.257917,-6.85839 -6.858399,-6.85839 H 76.444336 c -1.885966,0 -3.427735,-1.5447 -3.427735,-3.43067 0,-1.88596 1.541769,-3.42774 3.427735,-3.42774 h 10.286132 c 1.885968,0 3.430665,1.54178 3.430665,3.42774 h 3.427734 c -0.10287,-3.80623 -3.189336,-6.85546 -6.858399,-6.85546 z m 26.748044,0 c -3.84051,0.1029 -6.858396,3.15211 -6.858396,6.85546 v 10.28906 c 0,3.8748 3.189338,6.8584 6.858396,6.8584 h 10.28614 c 3.84051,0 6.85839,-3.22363 6.85839,-6.8584 h -3.43066 c 0,1.88596 -1.54177,3.42774 -3.42773,3.42774 h -10.28614 c -1.88596,0 -3.430661,-1.54178 -3.430662,-3.42774 v -10.28906 c 0,-1.88596 1.544702,-3.42774 3.430662,-3.42774 h 10.28614 c 1.88596,0 3.42773,1.54178 3.42773,3.42774 h 3.43066 c -0.10287,-3.80623 -3.18933,-6.85546 -6.85839,-6.85546 z m 19.88672,0 v 24.00292 h 3.43067 v -10.28907 h 17.14453 v 10.28907 h 3.42773 v -24.00292 h -3.42773 v 10.28613 h -17.14453 v -10.28613 z m 27.4336,0 v 24.00292 h 24.00292 v -3.43067 h -20.5752 v -6.8584 h 17.14454 v -3.42772 h -17.14454 v -6.85841 h 20.5752 v -3.42772 z m 26.74512,0 v 24.00292 h 3.43065 V 245.4873 l 10.28614,14.84766 10.28613,-14.84766 v 17.86524 h 3.43067 v -24.00293 h -3.43067 l -10.28613,14.84765 -10.28614,-14.84765 z m 30.86132,0 v 24.00292 h 24.00293 v -3.43067 h -20.5752 v -6.8584 h 17.14746 v -3.42772 h -17.14746 v -6.85841 h 20.5752 v -3.42772 z" />
</svg>
