<?xml version="1.0" encoding="UTF-8" standalone="no"?>
<svg xmlns:svg="http://www.w3.org/2000/svg"
   xmlns="http://www.w3.org/2000/svg"
   version="1.1"
   width="300"
   height="250">
  <g id="layer1">
    <rect width="300" height="250" x="0" y="0" id="rect3140" style="fill:#ffffff;fill-opacity:1;stroke:none" />
    <path d="m 101.45313,38.644083 c -0.12684,0.047 -0.21875,0.1871 -0.21875,0.375 l 0,23.0625 c 0,0.2255 0.11825,0.34375 0.34375,0.34375 l 17.5,0 c 1.35298,0 2.529,-0.11825 3.53125,-0.34375 1.0022,-0.2255 1.81728,-0.59264 2.46875,-1.09375 0.80175,-0.57628 1.36794,-1.32913 1.71875,-2.28125 0.37581,-0.95211 0.56248,-2.0721 0.5625,-3.375 -2e-5,-2.80623 -0.93955,-4.69793 -2.84375,-5.625 1.15253,-0.9521 1.71872,-2.61969 1.71875,-5 -3e-5,-4.05899 -2.73777,-6.06247 -8.25,-6.0625 l -16.40625,0 c -0.0564,10e-6 -0.0827,-0.0157 -0.125,0 z m 28.4375,0 c -0.11275,0.047 -0.15625,0.1871 -0.15625,0.375 l 0,23.0625 c 0,0.2255 0.0808,0.34375 0.28125,0.34375 l 1.84375,0 c 0.17539,0 0.28124,-0.11825 0.28125,-0.34375 l 0,-23.0625 c -10e-6,-0.25053 -0.10586,-0.37497 -0.28125,-0.375 l -1.84375,0 c -0.0501,10e-6 -0.0874,-0.0157 -0.125,0 z m 4.78125,0 c -0.14094,0.047 -0.21875,0.1871 -0.21875,0.375 l 0,0.0937 9.34375,23.09375 c 0.025,0.15034 0.1433,0.21875 0.34375,0.21875 l 3.71875,0 c 0.12527,0 0.29334,-0.16808 0.46875,-0.46875 l 7.25,-19.3125 7.40625,19.28125 c 0.17536,0.32572 0.30599,0.5 0.40625,0.5 l 3.53125,0 c 0.1503,0 0.26235,-0.0685 0.3125,-0.21875 l 9.46875,-23.09375 0,-0.0937 c -4e-5,-0.25053 -0.11209,-0.37497 -0.3125,-0.375 l -2.78125,0 c -0.12532,3e-5 -0.26215,0.18669 -0.4375,0.5625 l -8,20.09375 -7.78125,-20.15625 c -0.17541,-0.35075 -0.34349,-0.49997 -0.46875,-0.5 l -2.78125,0 c -0.1253,3e-5 -0.26213,0.14925 -0.4375,0.5 l -7.75,20.15625 -7.9375,-20.09375 c -0.17539,-0.37581 -0.31223,-0.56247 -0.4375,-0.5625 l -2.75,0 c -0.0626,10e-6 -0.10927,-0.0157 -0.15625,0 z m 48.34375,0 c -0.10023,3e-5 -0.16865,0.0124 -0.21875,0.0625 l -11.8125,23.25 0,-0.0625 c -0.0501,0.0501 -0.0625,0.10614 -0.0625,0.15625 l 0,0.0312 c 0,0.2255 0.11825,0.34375 0.34375,0.34375 l 2.625,0 0.1875,0 0,-0.0937 0,-0.0312 2.78125,-5.46875 15.8125,0 2.84375,5.5 -0.0625,-0.0312 c 0.025,0.0501 0.0624,0.1 0.0625,0.125 l 0.21875,0 2.75,0 c 0.20042,0 0.28122,-0.11825 0.28125,-0.34375 -3e-5,0 -3e-5,-0.006 0,-0.0312 -2e-5,-0.0308 -0.0218,-0.0629 -0.0312,-0.0937 l -11.875,-23.25 c -0.0251,-0.025 -0.0374,-0.0312 -0.0625,-0.0312 -1e-5,-0.025 -0.0498,-0.0312 -0.125,-0.0312 l -3.65625,0 z m 1.8125,2.71875 6.28125,12.5 -12.65625,0 6.375,-12.5 z m -80.53125,0.375 14.625,0 c 1.42815,2e-5 2.49212,0.29255 3.21875,0.84375 0.7266,0.52619 1.09372,1.3849 1.09375,2.5625 -3e-5,1.37808 -0.42319,2.26157 -1.25,2.6875 -0.55125,0.42596 -1.55299,0.65626 -3.03125,0.65625 l -14.65625,0 0,-6.75 z m 0,9.78125 15.53125,0 c 0.80176,10e-6 1.48,0.0622 2.03125,0.1875 0.57625,0.12529 1.02419,0.30576 1.375,0.53125 0.75164,0.57629 1.12498,1.61547 1.125,3.09375 -2e-5,1.35301 -0.36716,2.35475 -1.09375,3.03125 -0.70158,0.65145 -1.81538,0.96876 -3.34375,0.96875 l -15.625,0 0,-7.8125 z m 11.4375,18.4375 c -8.82934,8e-5 -14.76727,1.31361 -17.781251,3.9375 -2.97859,2.58858 -4.46878,7.78862 -4.46875,15.625 l 0,12.749997 c -3e-5,5.28344 -0.92899,8.97467 -2.84375,11.03125 -1.87935,2.0212 -5.36688,3.03129 -10.4375,3.03125 l -3.25,0 0,7.59375 3.25,0 c 5.03516,3e-5 8.52269,1.03715 10.4375,3.09375 1.91476,2.05665 2.84372,5.77071 2.84375,11.125 l 0,12.6875 c -3e-5,7.83644 1.49016,13.09477 4.46875,15.71875 3.013981,2.62395 8.951911,3.90623 17.781251,3.90625 l 3.28125,0 0,-7.65625 -3.59375,0 c -4.99977,-1e-5 -8.25656,-0.78356 -9.78125,-2.34375 -1.52478,-1.5602 -2.31254,-4.81279 -2.3125,-9.8125 l 0,-13.21875 c -4e-5,-5.53159 -0.77939,-9.54488 -2.375,-12.0625 -1.595701,-2.51756 -4.376591,-4.26133 -8.312501,-5.21875 3.90046,-0.88644 6.65431,-2.57612 8.250001,-5.09375 1.63107,-2.51755 2.43746,-6.55789 2.4375,-12.125 l 0,-13.187497 c -4e-5,-4.99965 0.78772,-8.28348 2.3125,-9.84375 1.52469,-1.56012 4.78148,-2.34368 9.78125,-2.34375 l 3.59375,0 0,-7.59375 -3.28125,0 z m 65.25,0 0,7.59375 3.71875,0 c 4.96424,7e-5 8.19819,0.78363 9.6875,2.34375 1.52471,1.52481 2.28123,4.80864 2.28125,9.84375 l 0,13.187497 c -2e-5,5.56711 0.81056,9.60745 2.40625,12.125 1.59562,2.51763 4.34526,4.20731 8.28125,5.09375 -3.93599,0.95742 -6.68563,2.70119 -8.28125,5.21875 -1.59569,2.51762 -2.40627,6.53091 -2.40625,12.0625 l 0,13.21875 c -2e-5,5.07063 -0.75654,8.35026 -2.28125,9.875 -1.48931,1.52473 -4.72326,2.28124 -9.6875,2.28125 l -3.71875,0 0,7.65625 3.375,0 c 8.82927,-2e-5 14.71312,-1.2823 17.65625,-3.90625 2.97852,-2.62398 4.46871,-7.88231 4.46875,-15.71875 l 0,-12.6875 c -4e-5,-5.35429 0.92893,-9.06835 2.84375,-11.125 1.91475,-2.0566 5.40227,-3.09372 10.4375,-3.09375 l 3.3125,0 0,-7.59375 -3.3125,0 c -5.03523,4e-5 -8.52275,-1.01005 -10.4375,-3.03125 -1.91482,-2.05658 -2.84379,-5.74781 -2.84375,-11.03125 l 0,-12.749997 c -4e-5,-7.83638 -1.49023,-13.03642 -4.46875,-15.625 -2.94313,-2.62389 -8.82698,-3.93742 -17.65625,-3.9375 l -3.375,0 z m -48.25,14.6875 0,7.21875 4.375,0 c 3.26131,6e-5 5.62994,1.90963 7.0625,5.75 l 3.375,9.062497 -22.4375,49.09375 8.90625,0 17.65625,-37.84375 14.34375,37.84375 8.90625,0 -23.625,-63.124997 c -1.92024,-5.18147 -6.33037,-7.81475 -13.21875,-7.90625 l -5.34375,-0.0937 z M 91.265629,178.92533 c -5.68006,3e-5 -9.56261,1.03395 -11.625,3.0625 l 0.0625,0 c -2.09622,2.06243 -3.15625,5.97111 -3.15625,11.71875 0,4.93624 0.16446,8.21833 0.46875,9.875 0.27047,1.38621 0.70392,2.58202 1.3125,3.5625 0.64238,0.94668 1.42832,1.73262 2.375,2.375 1.0481,0.64239 2.37968,1.13322 3.96875,1.4375 1.62285,0.27048 3.54979,0.40625 5.78125,0.40625 l 11.500001,0 c 3.65142,0 6.39555,-0.59791 8.1875,-1.78125 2.16379,-1.55525 3.21871,-4.05396 3.21875,-7.46875 -4e-5,-0.10142 0.003,-0.15368 -0.0312,-0.1875 l -0.25,-0.21875 c -3e-5,-0.0338 -0.0287,-0.0312 -0.0625,-0.0312 l -0.0312,0 -3.21875,0 c -0.30432,1e-5 -0.43754,0.13322 -0.4375,0.4375 l 0,0.15625 c -4e-5,2.09622 -0.70758,3.45137 -2.09375,4.09375 -1.14956,0.57477 -2.91203,0.87501 -5.3125,0.875 l -11.812501,0 c -4.15862,1e-5 -6.84792,-0.67885 -8.03125,-2.03125 -0.47335,-0.60857 -0.85453,-1.61123 -1.125,-3.03125 -0.23667,-1.45381 -0.34376,-3.29979 -0.34375,-5.53125 -10e-6,-2.06238 0.0287,-3.7439 0.0625,-5.0625 0.0338,-1.35237 0.11475,-2.33146 0.25,-2.90625 0.3719,-2.09618 1.18397,-3.53484 2.46875,-4.3125 0.70999,-0.37188 1.68908,-0.66955 2.90625,-0.90625 1.25094,-0.23664 2.79669,-0.34372 4.65625,-0.34375 l 10.968751,0 c 4.90239,3e-5 7.34372,1.65286 7.34375,5 l 0,0.0937 c -3e-5,0.30431 0.16443,0.46878 0.46875,0.46875 l 3.1875,0 c 0.27044,3e-5 0.40621,-0.16444 0.40625,-0.46875 l 0,-0.0937 c -4e-5,-3.07666 -0.97913,-5.35353 -2.90625,-6.875 -1.89338,-1.52141 -4.71333,-2.31247 -8.5,-2.3125 l -10.656251,0 z m -45.281254,0.3125 c -6.592916,3e-5 -9.906252,2.93219 -9.90625,8.78125 -2e-6,3.65148 1.438663,6.14762 4.3125,7.5 2.130008,1.01431 5.359835,1.53126 9.6875,1.53125 l 1.34375,0 c 0.540939,1e-5 1.164976,-0.0287 1.875,-0.0625 l 0.65625,0 c 0.135219,2e-5 0.2423,2e-5 0.34375,0 0.101409,-0.0338 0.18236,-0.0312 0.25,-0.0312 l 0.90625,0 0.8125,0 c 0.608553,-0.0338 1.154199,-0.0625 1.59375,-0.0625 0.439503,2e-5 0.846818,2e-5 1.21875,0 1.622844,2e-5 3.032814,0.0522 4.250004,0.1875 1.21712,0.13526 2.19365,0.38066 2.9375,0.71875 1.8595,0.74383 2.78121,2.15636 2.78125,4.21875 -4e-5,0.98049 -0.13581,1.82125 -0.40625,2.53125 -0.27051,0.71001 -0.73009,1.28179 -1.40625,1.6875 -0.50718,0.30429 -1.15991,0.51846 -1.9375,0.6875 -0.77766,0.16906 -1.7255,0.25 -2.875,0.25 l -14.562504,0 c -1.183356,0 -2.214707,-0.0809 -3.09375,-0.25 -0.879064,-0.16904 -1.584052,-0.38576 -2.125,-0.65625 -0.777633,-0.3719 -1.349409,-0.91499 -1.6875,-1.625 -0.338104,-0.71 -0.528697,-1.54819 -0.5625,-2.5625 -7e-6,-0.30428 -0.133218,-0.46874 -0.4375,-0.46875 l -3.1875,0 c -0.270481,1e-5 -0.406252,0.16447 -0.40625,0.46875 -2e-6,3.11051 1.031349,5.47088 3.09375,7.09375 1.758103,1.45382 4.196869,2.1875 7.375,2.1875 l 15.750004,0 c 1.79189,0 3.30895,-0.13577 4.59375,-0.40625 1.31855,-0.30428 2.40728,-0.79511 3.21875,-1.4375 1.82569,-1.52143 2.71871,-3.99146 2.71875,-7.40625 -4e-5,-3.68526 -1.49097,-6.26235 -4.5,-7.75 -1.14957,-0.50713 -2.59079,-0.88575 -4.28125,-1.15625 -1.69052,-0.27046 -3.66972,-0.40623 -5.968754,-0.40625 -0.270503,2e-5 -0.651686,2e-5 -1.125,0 -0.47336,2e-5 -1.016446,-0.003 -1.625,0.0312 l -0.65625,0 c -0.13526,2e-5 -0.271031,0.0287 -0.40625,0.0625 -0.101449,2e-5 -0.211091,2e-5 -0.3125,0 -0.980503,0.0338 -1.821263,0.0312 -2.53125,0.0312 -0.676213,2e-5 -1.190609,2e-5 -1.5625,0 -3.211944,2e-5 -5.60101,-0.2951 -7.15625,-0.9375 -1.859546,-0.7438 -2.781256,-2.04669 -2.78125,-3.90625 -6e-6,-1.85952 0.459569,-3.11014 1.40625,-3.71875 0.40571,-0.27045 0.948796,-0.48717 1.625,-0.65625 0.709996,-0.16902 1.608135,-0.24997 2.65625,-0.25 l 15.500004,0 c 2.29903,3e-5 4.03793,0.30026 5.1875,0.875 0.77759,0.37193 1.31812,0.91247 1.65625,1.65625 0.33807,0.71004 0.52866,1.55079 0.5625,2.53125 -3e-5,0.2705 0.13574,0.40627 0.40625,0.40625 l 3.3125,0 c 0.23663,2e-5 0.34371,-0.13575 0.34375,-0.40625 -4e-5,-6.18716 -3.60849,-9.28122 -10.84375,-9.28125 l -16.031254,0 z m 71.500005,0 c -0.30429,3e-5 -0.46876,0.16193 -0.46875,0.5 l 0,31.15625 c -1e-5,0.30429 0.16446,0.46875 0.46875,0.46875 l 3.1875,0 c 0.30429,0 0.46874,-0.16446 0.46875,-0.46875 l 0,-13.9375 26.3125,0 0,13.9375 c -3e-5,0.30429 0.13574,0.46875 0.40625,0.46875 l 3.25,0 c 0.27044,0 0.40621,-0.16446 0.40625,-0.46875 l 0,-31.15625 c -4e-5,-0.33807 -0.13581,-0.49997 -0.40625,-0.5 l -3.25,0 c -0.27051,3e-5 -0.40628,0.16193 -0.40625,0.5 l 0,13 -26.3125,0 0,-13 c -1e-5,-0.33807 -0.16446,-0.49997 -0.46875,-0.5 l -3.1875,0 z m 38.625,0 c -0.30429,3e-5 -0.46875,0.16193 -0.46875,0.5 l 0,31.15625 c 0,0.30429 0.16446,0.46875 0.46875,0.46875 l 27.09375,0 c 0.27045,0 0.40621,-0.16446 0.40625,-0.46875 l 0,-3.25 c -4e-5,-0.30428 -0.1358,-0.46875 -0.40625,-0.46875 l -23.4375,0 0,-10.21875 22.65625,0 c 0.27045,1e-5 0.40623,-0.19314 0.40625,-0.53125 l 0,-3.1875 c -2e-5,-0.33808 -0.1358,-0.49998 -0.40625,-0.5 l -22.65625,0 0,-9.28125 23.4375,0 c 0.27045,3e-5 0.40621,-0.16187 0.40625,-0.5 l 0,-3.21875 c -4e-5,-0.33807 -0.1358,-0.49997 -0.40625,-0.5 l -27.09375,0 z m 30.40625,0 c -0.30429,3e-5 -0.4375,0.16193 -0.4375,0.5 l 0,31.15625 c 0,0.30429 0.13321,0.46875 0.4375,0.46875 l 3.3125,0 c 0.30428,0 0.43749,-0.16446 0.4375,-0.46875 l 0,-28.25 0.90625,0 16.40625,28.65625 c -2e-5,0 -0.003,0.0287 0.0312,0.0625 l 0.15625,0 2.1875,0 c 0.16902,0 0.27611,-0.0574 0.34375,-0.125 l 16.53125,-28.59375 0.96875,0 0,28.25 c -4e-5,0.30429 0.16441,0.46875 0.46875,0.46875 l 3.25,0 c 0.23662,0 0.3437,-0.16446 0.34375,-0.46875 l 0,-31.15625 c -5e-5,-0.33807 -0.10713,-0.49997 -0.34375,-0.5 l -6.90625,0 c -0.16909,3e-5 -0.27618,0.0261 -0.34375,0.0937 l -15.3437,26.18755 -14.84375,-26.21875 c -10e-6,3e-5 -0.0287,3e-5 -0.0625,0 -0.0338,-0.0338 -0.0861,-0.0625 -0.1875,-0.0625 l -7.3125,0 z m 49.9375,0 c -0.30429,3e-5 -0.46875,0.16193 -0.46875,0.5 l 0,31.15625 c 0,0.30429 0.16446,0.46875 0.46875,0.46875 l 27.0625,0 c 0.27045,0 0.40622,-0.16446 0.40625,-0.46875 l 0,-3.25 c -3e-5,-0.30428 -0.1358,-0.46875 -0.40625,-0.46875 l -23.40625,0 0,-10.21875 22.65625,0 c 0.27045,1e-5 0.40622,-0.19314 0.40625,-0.53125 l 0,-3.1875 c -3e-5,-0.33808 -0.1358,-0.49998 -0.40625,-0.5 l -22.65625,0 0,-9.28125 23.40625,0 c 0.27045,3e-5 0.40622,-0.16187 0.40625,-0.5 l 0,-3.21875 c -3e-5,-0.33807 -0.1358,-0.49997 -0.40625,-0.5 l -27.0625,0 z"
       id="path3097" style="fill:#000000;fill-opacity:1;stroke:none" />
  </g>
</svg>
